# xmcd CD database file
# Copyright (C) 1995-1998 Ti Kan
#
# Track frame offsets:
#	150
#	27200
#	79598
#	93783
#	111878
#	133628
#	168693
#	211885
#	246245
#
# Disc length: 3612 seconds
#
# Revision: 1
# Processed by: cddbd v1.4PL0 Copyright (c) Steve Scherf et al.
# Submitted via: CDex 1.30Release
#
DISCID=6f0e1a09
DTITLE=The Christopher James Band - Introducing The Christopher James Band
DYEAR=1998
DGENRE=Blues
TTITLE0=East West
TTITLE1=Somes Married Woman
TTITLE2=That's Tight
TTITLE3=If You Don't Want Me
TTITLE4=I Was Blind
TTITLE5=Milllionaire
TTITLE6=One Half Past Midnight
TTITLE7=Singing Slow Songs
TTITLE8=Not Everybody Lives The Blues
EXTD=YEAR: 1998 ID3G:   0
EXTT0=
EXTT1=
EXTT2=
EXTT3=
EXTT4=
EXTT5=
EXTT6=
EXTT7=
EXTT8=
PLAYORDER=
